<svg width="54" height="49" viewBox="0 0 54 49" fill="none" xmlns="http://www.w3.org/2000/svg">
<path d="M15.75 48.75H5.90625C2.71875 48.75 0 46.125 0 42.8438V5.90625C0.09375 2.625 2.71875 0 5.90625 0H15.75C18.9375 0 21.6562 2.625 21.6562 5.90625V42.9375C21.5625 46.125 18.9375 48.75 15.75 48.75ZM5.90625 4.21875C4.96875 4.21875 4.21875 4.96875 4.21875 5.90625V42.9375C4.21875 43.875 4.96875 44.625 5.90625 44.625H15.75C16.6875 44.625 17.4375 43.875 17.4375 42.9375V5.90625C17.4375 4.96875 16.6875 4.21875 15.75 4.21875H5.90625Z" fill="black"/>
<path d="M47.1562 48.75H37.3125C34.125 48.75 31.4062 46.125 31.4062 42.8438V5.90625C31.4062 2.71875 34.0312 0 37.3125 0H47.1562C50.3438 0 53.0625 2.625 53.0625 5.90625V42.9375C53.0625 46.125 50.3438 48.75 47.1562 48.75ZM37.3125 4.21875C36.375 4.21875 35.625 4.96875 35.625 5.90625V42.9375C35.625 43.875 36.375 44.625 37.3125 44.625H47.1562C48.0938 44.625 48.8437 43.875 48.8437 42.9375V5.90625C48.8437 4.96875 48.0938 4.21875 47.1562 4.21875H37.3125Z" fill="black"/>
</svg>
