<svg width="59" height="59" viewBox="0 0 59 59" fill="none" xmlns="http://www.w3.org/2000/svg">
<path d="M47.625 39.375C47.1562 39.375 46.5937 39.1875 46.2187 38.8125C45.375 38.0625 45.2812 36.6563 46.125 35.8125C49.125 32.625 49.125 27.375 46.125 24.1875C45.375 23.3438 45.375 22.0313 46.2187 21.1875C47.0625 20.4375 48.375 20.4375 49.2187 21.2813C53.625 26.0625 53.625 33.8438 49.2187 38.625C48.75 39.0938 48.1875 39.375 47.625 39.375ZM42.375 35.5313C41.9062 35.5313 41.3437 35.3438 40.9687 34.9688C40.125 34.2188 40.0312 32.8125 40.875 31.9688C41.8125 30.9375 41.9062 29.1563 40.875 28.0313C40.125 27.1875 40.125 25.875 40.9687 25.0313C41.8125 24.2813 43.125 24.2813 43.9687 25.125C46.5 27.8438 46.4062 32.0625 43.9687 34.7813C43.5 35.25 42.9375 35.5313 42.375 35.5313Z" fill="#1B1A1A"/>
<path d="M30 49.0312C29.1562 49.0312 28.3125 48.8437 27.5625 48.375L17.4375 42.0937C17.3438 42.0937 17.3437 42 17.25 42H5.25C2.71875 42 0.65625 39.9375 0.65625 37.4062V22.5937C0.65625 20.0625 2.71875 18 5.25 18H17.25C17.3437 18 17.3438 18 17.4375 17.9062L27.5625 11.625C28.9687 10.7812 30.75 10.6875 32.25 11.5312C33.75 12.375 34.5938 13.875 34.5938 15.5625V44.5312C34.5938 46.2187 33.6562 47.7187 32.25 48.5625C31.5 48.8437 30.75 49.0312 30 49.0312ZM5.25 22.2187C5.0625 22.2187 4.875 22.4062 4.875 22.5937V37.4062C4.875 37.5937 5.0625 37.7812 5.25 37.7812H17.25C18.0937 37.7812 18.9375 38.0625 19.6875 38.4375L29.8125 44.7187C29.9062 44.8125 30.0938 44.8125 30.1875 44.7187C30.2812 44.625 30.375 44.5312 30.375 44.4375V15.4687C30.375 15.2812 30.2812 15.1875 30.1875 15.1875C30.0938 15.0937 29.9062 15.0937 29.8125 15.1875L19.6875 21.5625C18.9375 22.0312 18.0937 22.2187 17.25 22.2187H5.25Z" fill="#1B1A1A"/>
</svg>
