<svg width="59" height="59" viewBox="0 0 59 59" fill="none" xmlns="http://www.w3.org/2000/svg">
<path d="M42.0375 11.8922C41.2078 11.0626 39.9172 11.0626 39.0875 11.8922L34.4781 16.5016V15.5797C34.4781 13.9204 33.5562 12.4454 32.1734 11.6157C30.6984 10.786 28.9469 10.8782 27.5641 11.7079L17.6078 17.8844C17.5156 17.8844 17.5156 17.9766 17.4234 17.9766H5.62343C3.13437 17.9766 1.10625 20.0047 1.10625 22.4938V37.0594C1.10625 39.5485 3.13437 41.5766 5.62343 41.5766H9.31094L6.82187 44.0657C5.99218 44.8954 5.99218 46.186 6.82187 47.0157C7.19062 47.3844 7.74375 47.661 8.29687 47.661C8.85 47.661 9.40312 47.4766 9.77187 47.0157L41.9453 14.7501C42.8672 14.0126 42.8672 12.7219 42.0375 11.8922ZM5.62343 37.5204C5.43906 37.5204 5.25468 37.336 5.25468 37.1516V22.586C5.25468 22.4016 5.43906 22.2172 5.62343 22.2172H17.4234C18.2531 22.2172 19.0828 21.9407 19.8203 21.5719L29.7766 15.3954C29.8687 15.3032 30.0531 15.3032 30.1453 15.3954C30.2375 15.4876 30.3297 15.5797 30.3297 15.6719V20.6501V20.7422L13.5516 37.5204H5.62343Z" fill="black"/>
<path d="M32.3578 28.6704C31.2516 28.6704 30.2375 29.5923 30.2375 30.7907V44.1579C30.2375 44.3423 30.1453 44.4345 30.0531 44.4345C29.9609 44.5267 29.7766 44.5267 29.6844 44.4345L21.6641 39.4563C20.65 38.811 19.4516 39.1798 18.8062 40.1017C18.1609 41.1157 18.5297 42.3142 19.4516 42.9595L27.4719 47.9376C28.2094 48.3985 29.0391 48.5829 29.8687 48.5829C30.6062 48.5829 31.3437 48.3985 32.0812 48.0298C33.5562 47.2001 34.3859 45.7251 34.3859 44.0657V30.7907C34.4781 29.5923 33.5562 28.6704 32.3578 28.6704Z" fill="black"/>
</svg>
