<svg preserveAspectRatio="xMinYMin meet" viewBox="0 0 51 51" fill="none"  style="transform: scale(0.75)" xmlns="http://www.w3.org/2000/svg">
<path d="M25.5797 15.6187C20.1609 15.6187 15.6984 20.0812 15.6984 25.4999C15.6984 30.9983 20.1609 35.3812 25.5797 35.3812C30.9984 35.3812 35.4609 30.9983 35.4609 25.4999C35.4609 20.0812 30.9984 15.6187 25.5797 15.6187ZM25.5797 31.8749C22.0734 31.8749 19.2844 29.0062 19.2844 25.5796C19.2844 22.0733 22.0734 19.2843 25.5797 19.2843C29.0859 19.2843 31.875 22.0733 31.875 25.4999C31.875 29.0062 29.0062 31.8749 25.5797 31.8749Z" fill="#1B1A1A"/>
<path d="M48.3703 30.3607L43.9078 27.8904C44.0672 27.0139 44.1469 26.1373 44.1469 25.2607C44.1469 24.3045 44.0672 23.4279 43.9875 22.5514L48.5297 20.0014C49.5656 19.4436 49.9641 18.1686 49.4859 17.0529L44.8641 9.24356C44.3062 8.28731 43.0312 7.88887 41.9953 8.2873L37.2141 10.917C36.975 10.7576 36.7359 10.5186 36.5766 10.3592C35.7 9.64199 34.9031 8.92481 33.6281 8.2873C33.5484 8.2873 33.4687 8.20762 33.4687 8.04824V5.17949C33.4687 3.10762 31.7953 1.35449 29.6437 1.35449H21.4359C19.3641 1.35449 17.6109 3.10762 17.6109 5.17949V8.2873C17.6109 8.36699 17.5312 8.44668 17.4516 8.52637C16.2562 9.08418 15.3797 9.88106 14.4234 10.5982C14.2641 10.7576 14.025 10.917 13.8656 11.0764L9.64218 8.68574C8.04843 7.80918 6.69374 8.36699 6.13593 9.32324L1.75312 16.8936C1.51406 17.5311 1.43437 18.1686 1.59374 18.8061C1.75312 19.4436 2.15156 19.9217 2.70937 20.2404L7.17187 22.6311C7.01249 23.4279 7.01249 24.3045 7.01249 25.3404C7.01249 26.217 7.09218 27.0936 7.17187 27.9701L2.54999 30.5201C1.51406 31.0779 1.11562 32.3529 1.59374 33.4686L6.21562 41.2779C6.77343 42.2342 7.96874 42.6326 9.08437 42.2342L13.8656 39.6045C14.1047 39.7639 14.2641 39.9232 14.5031 40.1623C15.3797 40.9592 16.2562 41.6764 17.5312 42.2342C17.6109 42.2342 17.6906 42.3139 17.6906 42.4732V45.8998C17.6906 47.9717 19.3641 49.7248 21.5156 49.7248H29.6437C31.7156 49.7248 33.4687 47.9717 33.4687 45.8998V42.2342C33.4687 42.1545 33.5484 42.0748 33.6281 41.9951C34.8234 41.4373 35.6203 40.7201 36.5766 39.9232C36.8156 39.7639 36.975 39.6045 37.2141 39.3654L41.4375 41.7561C43.0312 42.6326 44.3062 42.0748 44.9437 41.1186L49.4062 33.5482C49.725 32.9904 49.8047 32.3529 49.6453 31.7951C49.4859 31.2373 48.9281 30.6795 48.3703 30.3607ZM42.3141 38.2498L38.4891 36.0982C37.3734 35.4607 36.0984 35.6201 35.1422 36.417C34.7437 36.7357 34.425 36.9748 34.1062 37.2936C33.3094 38.0107 32.7516 38.4889 31.9547 38.8076C30.6797 39.4451 29.8031 40.7998 29.8031 42.2342V45.7404C29.8031 45.8998 29.7234 45.9795 29.5641 45.9795H21.4359C21.2766 45.9795 21.1969 45.8998 21.1969 45.7404V42.3139C21.1969 40.8795 20.3203 39.5248 19.0453 38.8873C18.2484 38.4889 17.6109 38.0107 16.8141 37.2936C16.4953 37.0545 16.1766 36.7357 15.7781 36.4967C15.2203 36.0982 14.5828 35.8592 13.8656 35.8592C13.3875 35.8592 12.8297 36.0186 12.3516 36.2576L8.52656 38.4092L5.33906 32.9904L9.08437 30.9186C10.2 30.2811 10.8375 29.0857 10.6781 27.7311C10.5984 26.9342 10.5187 26.1373 10.5187 25.3404C10.5187 24.4639 10.5984 23.667 10.6781 23.0295C10.9172 21.6748 10.2797 20.3201 9.08437 19.6826L5.57812 17.6904L8.68593 12.3514L12.5109 14.5029C13.6266 15.1404 14.9016 14.9811 15.8578 14.1842C16.1766 13.9451 16.4953 13.6264 16.8141 13.3873C17.6109 12.6701 18.2484 12.192 19.0453 11.7936C20.4 11.1561 21.1969 9.80137 21.1969 8.36699V5.25918C21.1969 5.0998 21.2766 5.02012 21.4359 5.02012H29.5641C29.7234 5.02012 29.8031 5.0998 29.8031 5.25918V8.2873C29.8031 9.72168 30.6797 11.0764 31.9547 11.7139C32.7516 12.1123 33.3094 12.5904 34.1062 13.2279C34.425 13.5467 34.7437 13.7857 35.1422 14.1045C36.0984 14.9014 37.4531 14.9811 38.4891 14.3436L42.3141 12.192L45.5016 17.6107L41.8359 19.6826C40.7203 20.3201 40.0828 21.6748 40.3219 23.0295C40.4016 23.7467 40.4812 24.5436 40.4812 25.3404C40.4812 26.1373 40.4016 26.9342 40.2422 27.7311C40.0031 29.0857 40.6406 30.3607 41.8359 30.9982L45.4219 32.9904L42.3141 38.2498Z" fill="#1B1A1A"/>
</svg>
